<?xml version="1.0" encoding="utf-8"?>
<!-- Generator: Adobe Illustrator 23.0.2, SVG Export Plug-In . SVG Version: 6.00 Build 0)  -->
<svg version="1.1" id="Layer_1" xmlns="http://www.w3.org/2000/svg" xmlns:xlink="http://www.w3.org/1999/xlink" x="0px" y="0px"
	 viewBox="0 0 281.2502 235.6612" enable-background="new 0 0 281.2502 235.6612" xml:space="preserve">
<g>
	<path d="M100.4962,154.9122l23.0618-5.0319v77.2809H77.1154v8.5h162.8849v-8.5h-46.4424v-83.7311l58.2683,28.6091
		c0.7764,0.3818,1.6035,0.5645,2.4209,0.5645c1.7754,0,3.5039-0.8613,4.5567-2.417l21.5-31.75
		c1.7031-2.5156,1.0449-5.9346-1.4697-7.6377c-2.5156-1.7051-5.9355-1.0459-7.6377,1.4697l-18.8174,27.7881l-68.1367-33.4551
		c-1.1143-0.5469-2.3818-0.6992-3.5967-0.4365l-79.085,17.2559L9.8624,24.0036c-1.8506-2.4106-5.3057-2.8623-7.7119-1.0127
		c-2.4092,1.8501-2.8623,5.3027-1.0127,7.7119L94.961,152.8878C96.2579,154.5773,98.4093,155.3654,100.4962,154.9122z"/>
	<path d="M64.7415,83.6189c9.6853,10.4689,24.3682,24.9975,31.4397,40.8358c0.5776,1.0721,1.1343,2.0347,1.6763,2.9069
		c0.962,2.2043,2.5173,4.0237,4.4268,5.3202c0.6194,0.4684,1.2339,0.8091,1.8516,1.0422c2.4373,1.1091,5.2424,1.4577,8.0498,0.7909
		l70.1943-16.6562l60.793,28.6367c1.7217,0.8105,3.5342,1.1943,5.3184,1.1943c4.6904,0,9.1865-2.6523,11.3174-7.1758
		c2.9414-6.2461,0.2637-13.6934-5.9815-16.6357l-64.75-30.5c-2.5635-1.2061-5.458-1.5068-8.2129-0.8535l-24.7168,5.865
		c-1.3198,2.2991-3.5168,4.0936-6.2744,4.8285l-43.819,11.6787c-0.5758,0.1531-1.1686,0.2571-1.7611,0.3088
		c-3.5725,0.3111-6.9885-1.2177-9.1384-4.0903L70.3531,77.976c-3.4026-4.5476-2.4719-11.0156,2.0752-14.4185
		c1.5396-1.152,3.3621-1.8494,5.2698-2.0156c3.5764-0.3115,6.9963,1.2174,9.1472,4.09l20.6305,27.566l10.9681-2.9232
		c-7.1116-12.3008-14.7937-20.7684-27.2048-31.0595c-11.9775-9.813-24.943-7.2563-31.0881-0.9594
		C54.0063,64.5499,57.071,76.6577,64.7415,83.6189z"/>
	<path d="M28.7663,35.3649c0.5653,0.8108,1.3444,1.533,2.2867,2.0591c-0.0664,1.8043,0.5779,3.5394,1.6716,4.8236
		c1.1591,1.3607,2.7483,2.216,4.4955,2.4199c0.3707,1.0129,0.9579,1.8974,1.6708,2.5848c1.8511,1.7856,4.4275,2.3696,6.7495,1.7217
		c0.4142,0.4488,0.869,0.8276,1.3376,1.1265c1.9741,1.2682,4.434,1.4206,6.5217,0.5468c-0.2744-1.2196-0.5253-2.4249-0.7395-3.6073
		c-2.3872,1.6865-6.5374-0.1187-5.1995-4.8401c-1.9266,6.7988-10.375,2.4809-5.9922-3.0624
		c-4.3828,5.5433-10.5355-1.6805-4.3647-5.1248c-6.1708,3.4443-9.0898-5.5843-2.071-6.4045
		c-7.0188,0.8202-6.2622-8.6358,0.5367-6.7092c-6.799-1.9266-2.4791-10.3755,3.0637-5.9933
		c-5.5428-4.3823,1.6803-10.5344,5.1248-4.3648c-3.4445-6.1696,5.5829-9.0886,6.4032-2.0698
		c-0.6626-5.6691,5.3772-6.2631,6.7102-2.7004c0.6527-1.4559,1.2725-2.669,1.809-3.6414c-0.3837-0.4002-0.7965-0.7477-1.2255-1.0216
		c-2.5029-1.6072-5.7992-1.4482-8.1125,0.3649c-0.1204-0.0557-0.2422-0.1079-0.3667-0.1579
		c-2.4043-0.9432-5.1296-0.4802-7.1133,1.2093c-0.5742,0.489-1.109,1.1176-1.5305,1.866c-1.7356-0.0726-3.449,0.5146-4.8097,1.6735
		c-1.3594,1.1578-2.2115,2.7559-2.4163,4.4809c-0.8071,0.2982-1.5129,0.7261-2.087,1.2151
		c-1.9824,1.6884-2.8732,4.3054-2.3228,6.8311c0.0288,0.1302,0.0598,0.2576,0.0957,0.3853
		c-2.1592,1.9939-2.8408,5.2229-1.6511,7.951c0.2209,0.5109,0.5221,1.0195,0.8993,1.4999
		C27.1309,30.6161,27.2974,33.2525,28.7663,35.3649z"/>
	<path d="M56.4764,50.2003c1.5776,0.3545,3.2217,0.1442,4.6644-0.5781c11.7369,0.1484,21.7401-8.8242,22.6908-20.6969
		c0.8965-11.1959-6.563-21.1301-17.1526-23.6702c-0.2998-0.4825-0.647-0.9218-1.0364-1.2985
		c-0.9763-0.942-2.1545-1.5396-3.3894-1.8085C59.6502,6.4835,50.5598,24.1148,56.4764,50.2003z"/>
	<path d="M85.0047,67.0107c-2.6487-3.5365-7.6602-4.2602-11.1985-1.6116c-3.5376,2.6475-4.2588,7.661-1.6118,11.1986
		l24.8018,33.1397c1.6763,2.24,4.3743,3.4141,7.0974,3.177c0.4572-0.0399,0.9149-0.1194,1.368-0.2402l43.819-11.6787
		c4.2689-1.1379,6.8074-5.5211,5.67-9.7906c-1.1394-4.2698-5.5355-6.8105-9.7906-5.67l-38.5939,10.2861L85.0047,67.0107z"/>
</g>
</svg>
