<?xml version="1.0" encoding="utf-8"?>
<!-- Generator: Adobe Illustrator 23.0.3, SVG Export Plug-In . SVG Version: 6.00 Build 0)  -->
<svg version="1.1" id="Layer_1" xmlns="http://www.w3.org/2000/svg" xmlns:xlink="http://www.w3.org/1999/xlink" x="0px" y="0px"
	 viewBox="0 0 153.6 153.6" style="enable-background:new 0 0 153.6 153.6;" xml:space="preserve">
<style type="text/css">
	.st0{fill:#70D1C0;}
	.st1{fill:#66C4A3;}
	.st2{fill:#4C9AE8;}
	.st3{fill:#57B9E2;}
	.st4{fill:#E43BA0;}
	.st5{fill:#B060FF;}
	.st6{fill:#7B78EB;}
	.st7{fill:#52E3D6;}
	.st8{fill:#3F93E4;}
	.st9{fill:#F19236;}
	.st10{fill:#FF4F4F;}
	.st11{fill:#2CC6E2;}
	.st12{fill:#78D32E;}
	.st13{fill:#E23F40;}
	.st14{fill:#40A4E2;}
	.st15{fill:#37CFA0;}
	.st16{fill:#3EC1CB;}
	.st17{fill:#3FC2CC;}
	.st18{fill:#3FC2CB;}
	.st19{fill:#42C3CC;}
	.st20{fill:#40C2CC;}
	.st21{fill:#49C5CE;}
	.st22{fill:#41C2CC;}
	.st23{fill:#43C3CC;}
	.st24{fill:#42C2CC;}
	.st25{fill:#43C3CD;}
	.st26{fill:#F0F8F8;}
	.st27{fill:#F1F8F8;}
	.st28{fill:#EEF7F7;}
	.st29{fill:#EBF6F7;}
	.st30{fill:#ECF7F7;}
	.st31{fill:#E0F3F4;}
	.st32{fill:#E6F5F5;}
	.st33{fill:#E8F5F6;}
	.st34{fill:#EFF7F7;}
	.st35{fill:#3FC1CB;}
	.st36{fill:#45C4CD;}
	.st37{fill:#46C4CD;}
	.st38{fill:#44C3CD;}
	.st39{fill:#45C3CD;}
	.st40{fill:#143755;}
	.st41{fill:#DDB833;}
	.st42{fill:#E2BB3C;}
	.st43{fill:#67C7A5;}
	.st44{fill:#D573B0;}
	.st45{fill:#EF6067;}
	.st46{fill:#3BCBF2;}
	.st47{fill:#F569B0;}
	.st48{fill:#3BC6E5;}
	.st49{fill:url(#SVGID_1_);}
	.st50{fill:url(#SVGID_2_);}
	.st51{fill:url(#SVGID_3_);}
	.st52{fill:url(#SVGID_4_);}
	.st53{fill:url(#SVGID_5_);}
	.st54{fill:url(#SVGID_6_);}
	.st55{fill:url(#SVGID_7_);}
	.st56{fill:url(#SVGID_8_);}
	.st57{fill:url(#SVGID_9_);}
	.st58{fill:url(#SVGID_10_);}
	.st59{fill:url(#SVGID_11_);}
	.st60{fill:url(#SVGID_12_);}
	.st61{fill:#FFFFFF;}
	.st62{fill:url(#SVGID_13_);}
	.st63{fill:url(#SVGID_14_);}
	.st64{fill:url(#SVGID_15_);}
	.st65{fill:url(#SVGID_16_);}
	.st66{fill:url(#SVGID_17_);}
	.st67{fill:url(#SVGID_18_);}
	.st68{fill:url(#SVGID_19_);}
	.st69{fill:url(#SVGID_20_);}
	.st70{fill:url(#SVGID_21_);}
	.st71{fill:url(#SVGID_22_);}
	.st72{fill:url(#SVGID_23_);}
	.st73{fill:url(#SVGID_24_);}
	.st74{fill:url(#SVGID_25_);}
	.st75{fill:url(#SVGID_26_);}
	.st76{fill:url(#SVGID_27_);}
	.st77{fill:url(#SVGID_28_);}
	.st78{fill:url(#SVGID_29_);}
	.st79{fill:url(#SVGID_30_);}
	.st80{fill:url(#SVGID_31_);}
	.st81{fill:url(#SVGID_32_);}
	.st82{fill:url(#SVGID_33_);}
	.st83{fill:url(#SVGID_34_);}
	.st84{fill:url(#SVGID_35_);}
	.st85{fill:url(#SVGID_36_);}
	.st86{fill:url(#SVGID_37_);}
	.st87{fill:url(#SVGID_38_);}
	.st88{fill:url(#SVGID_39_);}
	.st89{fill:url(#SVGID_40_);}
	.st90{fill:url(#SVGID_41_);}
	.st91{fill:url(#SVGID_42_);}
	.st92{fill:url(#SVGID_43_);}
	.st93{fill:url(#SVGID_44_);}
	.st94{fill:url(#SVGID_45_);}
	.st95{fill:url(#SVGID_46_);}
	.st96{fill:url(#SVGID_47_);}
	.st97{fill:url(#SVGID_48_);}
	.st98{fill:url(#SVGID_49_);}
	.st99{fill:url(#SVGID_50_);}
	.st100{fill:url(#SVGID_51_);}
	.st101{fill:url(#SVGID_52_);}
	.st102{fill:url(#SVGID_53_);}
	.st103{fill:url(#SVGID_54_);}
	.st104{fill:url(#SVGID_55_);}
	.st105{fill:url(#SVGID_56_);}
	.st106{fill:url(#SVGID_57_);}
	.st107{fill:url(#SVGID_58_);}
	.st108{fill:url(#SVGID_59_);}
	.st109{fill:url(#SVGID_60_);}
	.st110{fill:url(#SVGID_61_);}
	.st111{fill:url(#SVGID_62_);}
</style>
<g>
	<g>
		<path d="M74.9,80.8c-2-0.1-2.9-1.1-2.6-2.7c0.4-2.6,2.7-2.9,4.8-3.2c1.6-0.2,2.9,0.7,2.7,2.4C79.3,80,76.7,80.1,74.9,80.8z"/>
		<g>
			<path d="M125.7,59.6c-3.2,0-4.9,1.7-4.8,4.9c0,3,1.6,4.6,4.6,4.7c3.2,0.1,4.9-1.5,5.1-4.8C130.4,61.4,128.9,59.6,125.7,59.6z"/>
			<path d="M142,63.7c-0.3-6.9-3.9-11.9-10.4-14.4c-6.5-2.5-12.4-1.2-17.4,3.6c-9,8.7-5.3,23.3,6.8,27.3c1.5,0.5,3.5,0.3,3.5,3.1
				c-0.1,13.4,0,26.9-0.1,40.3c0,4.4-3.3,7.5-7.3,7.6c-4.2,0.1-7.5-3.2-7.7-7.7c-0.1-3.4,0-6.7-0.1-10.1c-0.2-8.4-6.8-14.9-15-14.9
				c-8.2,0-14.9,6.5-15.1,14.8c-0.1,3.1,0,6.2,0,9.2c-0.1,5.3-3.1,8.7-7.6,8.7c-4.5,0-7.5-3.5-7.5-8.8c0-7,0.3-14-0.1-21
				c-0.2-4.1,1.1-5.6,5.2-6.4C84,92.4,95.9,80.5,98.4,65.4c2-11.5,0.6-23.2,0.7-34.7c0-2.6-1.7-4.9-4.3-5.7c-2.1-0.7-3.1-1.5-3.3-4
				c-0.2-3.6-3.3-5.9-6.6-5.6c-3.5,0.4-5.6,2.5-5.8,6.1c-0.2,3.3-0.1,6.7,0,10.1c0.1,3.7,2.6,6.3,5.9,6.4c3.8,0.1,5.9-2,6.7-5.6
				c0.2-0.9-0.7-2.7,1.2-2.4c1.2,0.2,1.3,1.6,1.3,2.8c0.4,13,0.8,25.9-9.6,36c-1.1,1.1-1.5,2.4-0.3,3.7c1.4,1.4,2.8,0.9,4-0.3
				c1.3-1.3,2.5-2.6,4.2-4.4c-4.5,14.6-17.8,23.8-32.9,23.2C46.4,90.3,33.5,80.2,30.9,69c1.2,1.1,3,2.6,4.7,4.1
				c8.4,7.7,18.3,11,29.6,10.1c2-0.1,4.4-0.4,4.2-3c-0.2-2.8-2.8-2.1-4.7-2c-0.4,0-0.8,0-1.3,0.1c-17.2,0.6-30.9-10.2-34.2-27.1
				c-1.2-6.4-0.4-12.8-0.5-19.2c0-1,0.4-1.9,2.1-2.3c0.1,0.7,0.3,1.2,0.4,1.7c0.6,4.4,3,6.8,6.6,6.6c3.6-0.2,5.9-2.9,6-7.2
				c0.1-2.9,0.1-5.9,0-8.8c-0.1-3.9-2.6-6.5-6.1-6.6c-3.3-0.1-6,2.2-6.4,5.9c-0.2,1.9-0.5,3-2.6,3.4c-2.9,0.6-4.8,3-4.8,5.7
				c-0.2,11.2-1.3,22.5,0.4,33.5c2.6,17,13.8,27.9,31,31.4c2.9,0.6,3.8,1.6,3.7,4.6c-0.2,7.7-0.1,15.4-0.1,23.1
				c0,7.8,5.3,13.2,12.6,13.2c7.3,0,12.4-5.5,12.5-13.4c0-3.1-0.1-6.2,0-9.2c0.2-5.8,4.8-10.2,10.2-10.1c5.3,0.1,9.6,4.4,9.9,10
				c0.1,3.1,0,6.2,0,9.2c0.1,7.9,5.1,13.4,12.4,13.5c7.5,0.1,12.7-5.4,12.8-13.5c0-12.6,0.1-25.2-0.1-37.8c0-3,0.6-4.6,3.6-6
				C139.3,76.1,142.3,70.6,142,63.7z M85.4,32.4c-2.4,0-1.1-3.8-1.1-5.8c0-1.9-1-5.6,1-5.5c2.9,0.1,0.7,3.7,1.6,5.5
				C86,28.6,87.9,32.3,85.4,32.4z M37.5,21c2.5,0,0.6,3.8,1.4,5.8c-0.9,1.9,1.3,5.4-1.6,5.5c-2,0.1-1-3.6-1-5.5
				C36.4,24.8,35.2,21,37.5,21z M125.3,75.8c-6.1-0.2-11-5.4-11-11.4c0.1-6.1,5.5-11.4,11.7-11.2c6,0.2,11.1,5.5,11,11.5
				C136.9,70.8,131.6,76,125.3,75.8z"/>
		</g>
	</g>
</g>
</svg>
